# xmcd CD database file
#
# Track frame offsets:
#	150
#	14847
#	29360
#	43187
#	57590
#	69780
#	82162
#	97262
#	111757
#	125870
#	139915
#	155342
#	169412
#	183387
#	198740
#	212332
#	226330
#	239412
#	251700
#	265622
#	278887
#	291687
#	305240
#	318817
#
# Disc length: 4433 seconds
#
# Revision: 1
# Processed by: cddbd v1.5.1PL0 Copyright (c) Steve Scherf et al.
# Submitted via: CDex 1.51
#
DISCID=7d114f18
DTITLE=Various Artist - Mississippi Blues Vol. 2 (1926-1935)
DYEAR=1993
DGENRE=Blues
TTITLE0=Arthur Petties - Two Time Blues
TTITLE1=Arthur Petties - Out On Santa Fe-Blues
TTITLE2=Arthur Petties - That Won't Do
TTITLE3=Arthur Petties - Good Boy Blues
TTITLE4=Arthur Petties - Quarrellin' Mama Blues
TTITLE5=Arthur Petties - Revenue Man Blues
TTITLE6=Freddie Spruell - Milk Cow Blues
TTITLE7=Spurell, Freddie - Muddy Water Blues
TTITLE8=Freddie Spruell - Way Back Down Home ["Milk Cow Blues"]
TTITLE9=Freddie Spruell - Tom Cat Blues
TTITLE10=Freddie Spruell - Low-Down Mississippi Bottom Man
TTITLE11=Freddie Spruell - 4a Highway
TTITLE12=Freddie Spruell - Don't Cry Baby
TTITLE13=Freddie Spruell - Your Good Man Is Gone
TTITLE14=Freddie Spruell - Let's Go Riding
TTITLE15=Freddie Spruell - Mr. Freddie's Kokomo Blues
TTITLE16=Willie Lofton - It's Killin' Me
TTITLE17=Willie Lofton - Poor Boy Blues
TTITLE18=Willie Lofton - Jake Leg Blues
TTITLE19=Willie Lofton - My Mean Baby Blues
TTITLE20=Willie Lofton - Dirty Mistreater
TTITLE21=Willie Lofton - Rainy Day Blues
TTITLE22=Willie Lofton - Beer Garden Blues
TTITLE23=Willie Lofton - Dark Road Blues
EXTD=YEAR: 1993
EXTT0=
EXTT1=
EXTT2=
EXTT3=
EXTT4=
EXTT5=
EXTT6=
EXTT7=
EXTT8=
EXTT9=
EXTT10=
EXTT11=
EXTT12=
EXTT13=
EXTT14=
EXTT15=
EXTT16=
EXTT17=
EXTT18=
EXTT19=
EXTT20=
EXTT21=
EXTT22=
EXTT23=
PLAYORDER=
